<svg width="17" height="15" viewBox="0 0 17 15" fill="none" xmlns="http://www.w3.org/2000/svg">
<path opacity="0.949" fill-rule="evenodd" clip-rule="evenodd" d="M4.24385 0.0103172C5.74746 -0.0771563 7.04435 0.391599 8.13448 1.41657C9.91643 -0.100031 11.854 -0.326592 13.947 0.73688C15.6117 1.84022 16.354 3.39488 16.1735 5.40094C16.0483 6.38541 15.6577 7.24482 15.0017 7.97907C12.8376 10.1431 10.6736 12.3072 8.50948 14.4713C8.25949 14.6275 8.00946 14.6275 7.75948 14.4713C5.56418 12.276 3.36884 10.0806 1.17354 7.88532C-0.0235598 6.40599 -0.30481 4.76536 0.329789 2.96344C1.09202 1.25546 2.3967 0.271083 4.24385 0.0103172ZM4.43135 1.22907C5.81149 1.20825 6.93649 1.73171 7.80635 2.79938C8.02512 2.89313 8.24384 2.89313 8.4626 2.79938C8.96726 2.20041 9.57663 1.74727 10.2907 1.44C12.0167 0.963239 13.4151 1.43977 14.486 2.86969C15.3114 4.26844 15.2489 5.62782 14.2985 6.94782C12.268 9.0331 10.2132 11.0956 8.13448 13.1353C6.08824 11.1125 4.04918 9.08129 2.01729 7.04157C1.14776 5.84504 1.00713 4.56376 1.59541 3.19782C2.22518 2.08252 3.17051 1.42627 4.43135 1.22907Z" fill="#20201A"/>
</svg>
