<svg width="170" height="18" viewBox="0 0 170 18" fill="none" xmlns="http://www.w3.org/2000/svg">
<path d="M0 17.5981C0.756348 16.3462 0.945719 15.6608 0.945719 14.0079V3.99164C0.945719 2.33756 0.756348 1.65327 0 0.401382V0.353801C2.95509 0.353801 3.35764 0.259766 6.47829 0.259766C12.3658 0.259766 15.9355 3.28356 15.9355 8.90629C15.9355 14.529 12.5302 17.6469 6.47829 17.6469H0V17.5993V17.5981ZM6.26624 0.991641H3.66494V16.9841L6.28892 16.9127C11.1128 16.7949 12.8851 14.0305 12.8851 9.02299C12.8851 3.42404 10.7102 0.991641 6.2651 0.991641H6.26624Z" fill="#20201A"/>
<path d="M28.018 12.0219V4.62838C28.018 2.66727 27.8524 1.86402 27.0723 0.400278V0.352697H31.6829V0.400278C31.0445 1.60458 30.7372 2.66841 30.7372 4.62838V11.9516C30.7372 15.8025 32.5107 17.1484 35.0406 17.1484C38.4685 17.1484 39.6512 14.5732 39.6512 11.7387V5.05323C39.6512 2.92671 39.3439 2.05323 37.9492 0.399151V0.351562H42.0393L42.1573 0.399151C40.7863 2.05323 40.4552 2.92671 40.4552 5.05323V11.7149C40.4552 15.0933 38.989 17.9981 34.4736 17.9981C30.9742 17.9981 28.0191 16.2738 28.0191 12.0219H28.018Z" fill="#20201A"/>
<path d="M68.0236 16.2995C67.6222 16.6065 64.7612 18 61.5215 18C56.0593 18 52.5372 14.0551 52.5372 9C52.5372 3.94486 56.4618 0 61.9717 0C64.4778 0 66.6765 0.637841 67.9295 1.13406L68.45 5.26813L68.1189 5.38595C65.8487 2.07892 64.336 0.731876 61.6644 0.731876C57.3134 0.731876 55.5875 4.25189 55.5875 9C55.5875 13.7481 57.3849 17.2681 61.5227 17.2681C64.8327 17.2681 66.5824 14.9298 68.2141 11.6227L68.5214 11.7168L68.0248 16.2995H68.0236Z" fill="#20201A"/>
<path d="M80.4375 17.5979C81.1938 16.133 81.3832 15.3059 81.3832 13.3698V4.62919C81.3832 2.66809 81.1938 1.86484 80.4375 0.401097V0.353516H85.0482V0.401097C84.268 1.86598 84.1024 2.66922 84.1024 4.62919V8.36107H92.3542V4.62919C92.3542 2.69188 92.1887 1.86484 91.4085 0.401097V0.353516H96.0192V0.401097C95.2628 1.86598 95.0735 2.66922 95.0735 4.62919V13.3698C95.0735 15.3309 95.2628 16.1341 96.0192 17.5979V17.6454H91.4085V17.5979C92.1887 16.133 92.3542 15.3059 92.3542 13.3698V9.09408H84.1024V13.3698C84.1024 15.3309 84.268 16.1341 85.0482 17.5979V17.6454H80.4375V17.5979Z" fill="#20201A"/>
<path d="M108.1 17.5979C108.714 16.1568 109.022 15.2357 109.022 13.653V4.34596C109.022 2.73947 108.714 1.84218 108.1 0.401097V0.353516H119.023L119.945 4.55782L119.614 4.69944C118.408 3.44755 116.871 1.17942 115.879 1.13297L111.765 0.967562V8.55027H113.822C114.885 8.55027 115.902 6.96757 116.588 6.07029H116.943V11.6692H116.588C115.902 10.8422 114.886 9.28328 113.799 9.28328H111.766V17.0314L116.093 16.866C117.984 16.7946 119.616 14.5276 120.917 12.7081L121.248 12.826L120.208 17.6454H108.102V17.5979H108.1Z" fill="#20201A"/>
<path d="M131.791 17.386L142.006 0.991356L138.979 1.08539C135.574 1.20322 133.967 2.97512 132.595 5.26704L132.288 5.14921L133.447 0.353516H145.363V0.612954L135.172 17.0314L138.932 16.9136C142.337 16.7957 144.015 14.9298 145.457 12.3546L145.765 12.4725L144.536 17.6454H131.791V17.386Z" fill="#20201A"/>
<path d="M156.026 17.386L166.241 0.991356L163.215 1.08539C159.809 1.20322 158.202 2.97512 156.83 5.26704L156.523 5.14921L157.682 0.353516H169.599V0.612954L159.408 17.0314L163.167 16.9136C166.572 16.7957 168.25 14.9298 169.693 12.3546L170 12.4725L168.771 17.6454H156.026V17.386Z" fill="#20201A"/>
</svg>
