<svg width="385" height="42" viewBox="0 0 385 42" fill="none" xmlns="http://www.w3.org/2000/svg">
<path d="M0 40.2279C1.7129 37.3662 2.14177 35.7995 2.14177 32.0211V9.12566C2.14177 5.34471 1.7129 3.78053 0 0.918926V0.810164C6.69239 0.810164 7.60405 0.595215 14.6714 0.595215C28.0048 0.595215 36.0891 7.5071 36.0891 20.3597C36.0891 33.2124 28.3772 40.3392 14.6714 40.3392H0V40.2304V40.2279ZM14.1911 2.26816H8.3V38.8242L14.2425 38.6611C25.1671 38.3918 29.181 32.0729 29.181 20.6265C29.181 7.82823 24.2554 2.26816 14.1886 2.26816H14.1911Z" fill="#E9D9C7"/>
<path d="M63.4537 27.4801V10.5798C63.4537 6.09704 63.0787 4.26095 61.3119 0.915066V0.806303H71.7537V0.915066C70.3078 3.66791 69.6119 6.09963 69.6119 10.5798V27.3196C69.6119 36.1219 73.6284 39.1985 79.3577 39.1985C87.121 39.1985 89.7995 33.3121 89.7995 26.8327V11.5509C89.7995 6.69008 89.1035 4.69344 85.9448 0.912489V0.803711H95.2078L95.4749 0.912489C92.3701 4.69344 91.6202 6.69008 91.6202 11.5509V26.7783C91.6202 34.5008 88.2997 41.1408 78.0737 41.1408C70.1486 41.1408 63.4562 37.1992 63.4562 27.4801H63.4537Z" fill="#E9D9C7"/>
<path d="M154.054 37.2579C153.145 37.9597 146.666 41.145 139.329 41.145C126.958 41.145 118.982 32.1277 118.982 20.5725C118.982 9.01731 127.87 0 140.348 0C146.024 0 151.003 1.458 153.841 2.59228L155.019 12.0421L154.27 12.3114C149.128 4.75208 145.703 1.67295 139.652 1.67295C129.798 1.67295 125.89 9.71911 125.89 20.5725C125.89 31.4259 129.96 39.4721 139.331 39.4721C146.827 39.4721 150.79 34.127 154.485 26.5676L155.181 26.7826L154.056 37.2579H154.054Z" fill="#E9D9C7"/>
<path d="M182.168 40.2263C183.881 36.8778 184.31 34.9873 184.31 30.5616V10.5821C184.31 6.09933 183.881 4.26324 182.168 0.917356V0.808594H192.61V0.917356C190.843 4.26583 190.468 6.10192 190.468 10.5821V19.1125H209.156V10.5821C209.156 6.15371 208.781 4.26324 207.014 0.917356V0.808594H217.456V0.917356C215.743 4.26583 215.314 6.10192 215.314 10.5821V30.5616C215.314 35.0443 215.743 36.8804 217.456 40.2263V40.3351H207.014V40.2263C208.781 36.8778 209.156 34.9873 209.156 30.5616V20.7881H190.468V30.5616C190.468 35.0443 190.843 36.8804 192.61 40.2263V40.3351H182.168V40.2263Z" fill="#E9D9C7"/>
<path d="M244.814 40.2263C246.206 36.9322 246.902 34.8268 246.902 31.209V9.93466C246.902 6.26248 246.206 4.21144 244.814 0.917356V0.808594H269.552L271.64 10.4189L270.89 10.7426C268.16 7.88104 264.678 2.69648 262.431 2.5903L253.114 2.2122V19.545H257.773C260.181 19.545 262.485 15.9272 264.039 13.8762H264.843V26.6744H264.039C262.485 24.784 260.184 21.2205 257.721 21.2205H253.117V38.9314L262.916 38.5533C267.2 38.3902 270.895 33.2082 273.841 29.0492L274.591 29.3185L272.236 40.3351H244.819V40.2263H244.814Z" fill="#E9D9C7"/>
<path d="M298.467 39.742L321.6 2.26659L314.746 2.48154C307.034 2.75087 303.395 6.80114 300.288 12.0401L299.592 11.7708L302.216 0.808594H329.204V1.40163L306.125 38.9314L314.638 38.6621C322.35 38.3928 326.151 34.1276 329.417 28.2412L330.113 28.5105L327.329 40.3351H298.467V39.742Z" fill="#E9D9C7"/>
<path d="M353.354 39.742L376.487 2.26659L369.633 2.48154C361.921 2.75087 358.282 6.80114 355.174 12.0401L354.478 11.7708L357.103 0.808594H384.091V1.40163L361.012 38.9314L369.525 38.6621C377.237 38.3928 381.037 34.1276 384.304 28.2412L385 28.5105L382.216 40.3351H353.354V39.742Z" fill="#E9D9C7"/>
</svg>
