<svg width="8" height="14" viewBox="0 0 8 14" fill="none" xmlns="http://www.w3.org/2000/svg">
<path d="M0.877541 4.88079L5.46754 0.290792C5.6549 0.104542 5.90836 0 6.17254 0C6.43673 0 6.69018 0.104542 6.87754 0.290792C6.97127 0.383755 7.04566 0.494357 7.09643 0.616216C7.1472 0.738075 7.17334 0.868781 7.17334 1.00079C7.17334 1.1328 7.1472 1.26351 7.09643 1.38537C7.04566 1.50723 6.97127 1.61783 6.87754 1.71079L2.27754 6.29079C2.18381 6.38376 2.10942 6.49436 2.05865 6.61622C2.00788 6.73808 1.98174 6.86878 1.98174 7.00079C1.98174 7.13281 2.00788 7.26351 2.05865 7.38537C2.10942 7.50723 2.18381 7.61783 2.27754 7.71079L6.87754 12.2908C7.06585 12.4778 7.17216 12.7319 7.1731 12.9973C7.17404 13.2626 7.06952 13.5175 6.88254 13.7058C6.69556 13.8941 6.44144 14.0004 6.17608 14.0014C5.91071 14.0023 5.65584 13.8978 5.46754 13.7108L0.877541 9.12079C0.315739 8.55829 0.000179389 7.7958 0.000179389 7.00079C0.000179389 6.20579 0.315739 5.44329 0.877541 4.88079Z" fill="#20201A"/>
</svg>
