<svg width="8" height="14" viewBox="0 0 8 14" fill="none" xmlns="http://www.w3.org/2000/svg">
<path d="M6.2958 4.88079L1.7058 0.290792C1.51844 0.104542 1.26498 0 1.0008 0C0.736613 0 0.483161 0.104542 0.295798 0.290792C0.20207 0.383756 0.127676 0.494357 0.0769072 0.616216C0.0261385 0.738075 0 0.868781 0 1.00079C0 1.1328 0.0261385 1.26351 0.0769072 1.38537C0.127676 1.50723 0.20207 1.61783 0.295798 1.71079L4.8958 6.29079C4.98953 6.38376 5.06392 6.49436 5.11469 6.61622C5.16546 6.73808 5.1916 6.86878 5.1916 7.00079C5.1916 7.13281 5.16546 7.26351 5.11469 7.38537C5.06392 7.50723 4.98953 7.61783 4.8958 7.71079L0.295798 12.2908C0.107495 12.4778 0.00117992 12.7319 0.000242233 12.9973C-0.000695449 13.2626 0.103822 13.5175 0.290799 13.7058C0.477777 13.8941 0.731899 14.0004 0.997263 14.0014C1.26263 14.0023 1.5175 13.8978 1.7058 13.7108L6.2958 9.12079C6.8576 8.55829 7.17316 7.7958 7.17316 7.00079C7.17316 6.20579 6.8576 5.44329 6.2958 4.88079Z" fill="#20201A"/>
</svg>
