<svg width="24" height="24" viewBox="0 0 24 24" fill="none" xmlns="http://www.w3.org/2000/svg">
<path d="M19.0711 3.51486L3.51472 19.0712C3.1242 19.4617 3.1242 20.0949 3.51472 20.4854C3.90525 20.876 4.53841 20.876 4.92894 20.4854L20.4853 4.92908C20.8758 4.53855 20.8758 3.90539 20.4853 3.51486C20.0948 3.12434 19.4616 3.12434 19.0711 3.51486Z" fill="#E9D9C7"/>
<path d="M4.92893 3.51486L20.4853 19.0712C20.8758 19.4617 20.8758 20.0949 20.4853 20.4854C20.0948 20.876 19.4616 20.876 19.0711 20.4854L3.51471 4.92908C3.12419 4.53855 3.12419 3.90539 3.51471 3.51486C3.90524 3.12434 4.5384 3.12434 4.92893 3.51486Z" fill="#E9D9C7"/>
</svg>
