<svg width="32" height="32" viewBox="0 0 32 32" fill="none" xmlns="http://www.w3.org/2000/svg">
<path d="M10.8318 6.71674C12.6913 6.61367 14.2792 7.19098 15.6267 8.45795L15.9519 8.76459L16.2927 8.47455C17.4205 7.5147 18.5707 6.98513 19.7458 6.8476C20.9132 6.71109 22.1492 6.9569 23.4646 7.62006C24.499 8.31041 25.2279 9.12498 25.6746 10.0605C26.1231 11 26.3014 12.0907 26.1902 13.3486C26.0356 14.5562 25.5593 15.6029 24.7576 16.5029C24.7395 16.5209 24.7219 16.5395 24.7039 16.5576C24.6982 16.5632 24.6929 16.5695 24.6873 16.5751C24.6816 16.5808 24.6753 16.5861 24.6697 16.5917L24.6531 16.6083C24.6474 16.614 24.6421 16.6203 24.6365 16.6259C24.6309 16.6315 24.6245 16.6369 24.6189 16.6425L24.4841 16.7773C24.4785 16.7829 24.4732 16.7892 24.4675 16.7949C24.4619 16.8005 24.4556 16.8058 24.45 16.8115L24.4333 16.8281C24.4277 16.8337 24.4224 16.84 24.4167 16.8456C24.4111 16.8513 24.4048 16.8566 24.3992 16.8622L24.3826 16.8788C24.3769 16.8845 24.3716 16.8908 24.366 16.8964C24.3638 16.8986 24.3334 16.928 24.3318 16.9296L24.2136 17.0478C24.208 17.0534 24.2026 17.0597 24.197 17.0654C24.1914 17.071 24.1851 17.0763 24.1794 17.082L24.1628 17.0986C24.1572 17.1042 24.1519 17.1105 24.1462 17.1161C24.1406 17.1218 24.1343 17.1271 24.1287 17.1328L24.1121 17.1494C24.1064 17.155 24.1011 17.1613 24.0955 17.1669C24.073 17.1894 24.0496 17.2118 24.0271 17.2343L23.9597 17.3017C23.9485 17.3129 23.9377 17.3247 23.9265 17.3359C23.9209 17.3415 23.9146 17.3468 23.9089 17.3525L23.8416 17.4199C23.8359 17.4255 23.8306 17.4318 23.825 17.4374C23.8193 17.443 23.813 17.4484 23.8074 17.454L23.7234 17.538C23.7178 17.5436 23.7124 17.55 23.7068 17.5556C23.7012 17.5612 23.6948 17.5666 23.6892 17.5722L23.6726 17.5888C23.667 17.5944 23.6616 17.6008 23.656 17.6064C23.6414 17.621 23.6364 17.625 23.6218 17.6396C23.6162 17.6452 23.6109 17.6515 23.6052 17.6572C23.5996 17.6628 23.5933 17.6681 23.5876 17.6738L23.571 17.6904C23.5654 17.696 23.5601 17.7023 23.5544 17.7079C23.5226 17.7397 23.5521 17.7093 23.5203 17.7411L23.4529 17.8085C23.4473 17.8141 23.4419 17.8205 23.4363 17.8261C23.4306 17.8317 23.4243 17.8371 23.4187 17.8427C23.3903 17.8711 23.4139 17.8484 23.3855 17.8769C23.3799 17.8825 23.3736 17.8879 23.3679 17.8935L23.3513 17.9101C23.3457 17.9157 23.3404 17.922 23.3347 17.9277C23.3291 17.9333 23.3228 17.9386 23.3171 17.9443C23.2857 17.9757 23.3156 17.9467 23.2839 17.9785C23.282 17.9804 23.2512 18.0102 23.2498 18.0117L23.1824 18.079C23.1768 18.0846 23.1714 18.091 23.1658 18.0966C23.1601 18.1023 23.1538 18.1076 23.1482 18.1132L23.1316 18.1298C23.126 18.1354 23.1206 18.1418 23.115 18.1474C23.1094 18.153 23.103 18.1584 23.0974 18.164L23.0808 18.1806C23.0752 18.1862 23.0698 18.1925 23.0642 18.1982C23.0586 18.2038 23.0523 18.2092 23.0466 18.2148L23.03 18.2314C23.0244 18.237 23.0191 18.2433 23.0134 18.249C23.0078 18.2546 23.0015 18.26 22.9958 18.2656L22.9119 18.3495C22.9063 18.3552 22.9009 18.3615 22.8953 18.3671C22.8896 18.3728 22.8833 18.3781 22.8777 18.3837L22.8611 18.4003C22.8555 18.406 22.8501 18.4123 22.8445 18.4179C22.8157 18.4467 22.8389 18.4225 22.8103 18.4511L22.7761 18.4853C22.7733 18.4882 22.7436 18.5188 22.7429 18.5195C22.7373 18.5251 22.7309 18.5305 22.7253 18.5361L21.407 19.8544C21.4013 19.8601 21.396 19.8664 21.3904 19.872C21.3848 19.8776 21.3784 19.883 21.3728 19.8886L21.2546 20.0068C21.1985 20.0629 21.176 20.0864 21.1199 20.1425C21.0631 20.1993 21.041 20.2204 20.9841 20.2773C20.9197 20.3417 20.9139 20.3485 20.8494 20.413C20.8053 20.4571 20.7576 20.5038 20.7136 20.5478L20.6462 20.6152L20.5789 20.6835C20.568 20.6944 20.5556 20.7059 20.5447 20.7167L20.3757 20.8857C20.3701 20.8913 20.3648 20.8976 20.3591 20.9033C20.3535 20.9089 20.3472 20.9142 20.3416 20.9199C20.3307 20.9307 20.3192 20.9432 20.3083 20.954C20.2978 20.9645 20.2847 20.9767 20.2742 20.9872L20.1726 21.0888C20.1286 21.1328 20.0819 21.1805 20.0378 21.2245C19.9734 21.289 19.9666 21.2948 19.9021 21.3593C19.8453 21.4161 19.8242 21.4382 19.7673 21.4951C19.7366 21.5258 19.7297 21.5317 19.699 21.5624L19.6316 21.6298C19.6207 21.6407 19.6093 21.6531 19.5984 21.664C19.5928 21.6696 19.5864 21.675 19.5808 21.6806L19.53 21.7314C19.5151 21.7463 19.5119 21.7505 19.4968 21.7656C19.482 21.7804 19.4775 21.7839 19.4626 21.7988L19.3611 21.9003C19.316 21.9454 19.2714 21.991 19.2263 22.0361C19.1812 22.0812 19.1357 22.1257 19.0906 22.1708C19.068 22.1934 18.9782 22.2842 18.9558 22.3066C18.9502 22.3122 18.9438 22.3176 18.9382 22.3232L18.8035 22.4579C18.7978 22.4636 18.7925 22.4699 18.7869 22.4755C18.7812 22.4812 18.7749 22.4865 18.7693 22.4921L18.7527 22.5087C18.73 22.5315 18.708 22.5544 18.6853 22.5771C18.6486 22.6138 18.6879 22.5735 18.6511 22.6103L18.5837 22.6777C18.5781 22.6833 18.5727 22.6896 18.5671 22.6953C18.5615 22.7009 18.5552 22.7062 18.5496 22.7119L17.907 23.3544C17.9041 23.3573 17.8742 23.3882 17.8738 23.3886C17.8682 23.3942 17.8618 23.3996 17.8562 23.4052L17.7214 23.54C17.7158 23.5456 17.7105 23.5519 17.7048 23.5576C17.6992 23.5632 17.6929 23.5685 17.6873 23.5742L17.6707 23.5908C17.665 23.5964 17.6597 23.6027 17.6541 23.6083C17.6484 23.614 17.6421 23.6193 17.6365 23.6249C17.6218 23.6396 17.6181 23.6443 17.6033 23.6591C17.5537 23.7087 17.5846 23.6768 17.5349 23.7265L17.3494 23.912C17.3437 23.9177 17.3384 23.924 17.3328 23.9296C17.3272 23.9352 17.3208 23.9406 17.3152 23.9462L17.2312 24.0302C17.2256 24.0358 17.2202 24.0422 17.2146 24.0478C17.209 24.0534 17.2027 24.0588 17.197 24.0644L17.1804 24.081C17.1748 24.0866 17.1694 24.0929 17.1638 24.0986C17.1582 24.1042 17.1519 24.1095 17.1462 24.1152L17.1296 24.1318C17.1165 24.1449 17.0754 24.187 17.0623 24.2001C17.0471 24.2153 17.0433 24.2182 17.0281 24.2333L16.9265 24.3349C16.9191 24.3423 16.9006 24.3618 16.8933 24.3691C16.8877 24.3747 16.8814 24.38 16.8757 24.3857L16.8083 24.4531C16.8027 24.4587 16.7974 24.465 16.7917 24.4706C16.7861 24.4762 16.7798 24.4816 16.7742 24.4872L16.6902 24.5712C16.6846 24.5768 16.6792 24.5832 16.6736 24.5888C16.6679 24.5944 16.6616 24.5998 16.656 24.6054L16.6394 24.622C16.6338 24.6276 16.6284 24.634 16.6228 24.6396C16.6116 24.6508 16.5999 24.6615 16.5886 24.6728C16.5478 24.7137 16.5621 24.7003 16.5212 24.7411C16.5065 24.7559 16.5018 24.7596 16.4871 24.7744L16.3855 24.8759C16.3777 24.8837 16.36 24.9024 16.3523 24.9101C16.3467 24.9157 16.3404 24.9211 16.3347 24.9267L16.3181 24.9433C16.3055 24.9559 16.2633 24.9991 16.2507 25.0117C16.2451 25.0173 16.2388 25.0227 16.2332 25.0283L16.1824 25.079C16.1757 25.0857 16.1685 25.0919 16.1619 25.0986C16.0805 25.1425 16.0178 25.1562 15.9685 25.1562C15.9186 25.1561 15.8551 25.142 15.7722 25.0966L7.06323 16.3876C5.59294 14.5614 5.24985 12.5686 6.02612 10.3447C6.97066 8.23962 8.55587 7.04352 10.8318 6.71674ZM11.0242 7.34369L10.989 7.34467L10.9539 7.34955C9.12114 7.63623 7.72872 8.60306 6.81421 10.2226L6.80151 10.246L6.79077 10.2714C5.93727 12.2535 6.14427 14.1487 7.40796 15.8876L7.43042 15.9189L7.45874 15.9462C10.1687 18.6667 12.8878 21.3763 15.6169 24.0742L15.9675 24.4208L16.3191 24.0761C19.0935 21.3538 21.8356 18.6004 24.5457 15.8173L24.572 15.791L24.5935 15.7607C25.2724 14.8176 25.653 13.833 25.7 12.8124C25.7469 11.7917 25.4578 10.7771 24.8679 9.77728L24.8542 9.75385L24.8376 9.73138C24.0762 8.71475 23.1755 8.00776 22.1296 7.65131C21.0837 7.29489 19.9373 7.30466 18.7107 7.64349L18.6775 7.65228L18.6462 7.66595C17.6668 8.0874 16.8247 8.70278 16.1208 9.5058C16.0186 9.53483 15.9223 9.5361 15.8201 9.50775C14.5762 8.04301 12.9661 7.31452 11.0242 7.34369Z" fill="#5A2E35" stroke="#5A2E35"/>
<path d="M10.7998 7.1198C12.0158 6.50598 14.8531 8.3986 16.1198 9.42164L19.9198 7.11983H22.1998L24.4798 8.65438L25.9998 10.9562L25.2398 14.0253L22.9598 17.0944L20.6798 18.629L16.1198 23.9999L14.5998 22.4654C13.3331 20.9308 10.4958 17.7083 9.27976 17.0944C7.75976 16.3272 6.99976 12.4908 6.99976 10.9562C6.99976 9.42166 9.27976 7.88708 10.7998 7.1198Z" fill="#5A2E35" stroke="#5A2E35"/>
</svg>
