<svg width="15" height="3" viewBox="0 0 15 3" fill="none" xmlns="http://www.w3.org/2000/svg">
<path d="M1.05371 2.1333C0.871094 2.1333 0.699544 2.08626 0.539062 1.99219C0.378581 1.89258 0.248535 1.76253 0.148926 1.60205C0.0493164 1.43604 -0.000488281 1.25618 -0.000488281 1.0625C-0.000488281 0.868815 0.0493164 0.691732 0.148926 0.53125C0.248535 0.370768 0.378581 0.24349 0.539062 0.149414C0.699544 0.0498047 0.871094 0 1.05371 0H12.9653C13.1535 0 13.3278 0.0498047 13.4883 0.149414C13.6488 0.24349 13.776 0.370768 13.8701 0.53125C13.9697 0.691732 14.0195 0.868815 14.0195 1.0625C14.0195 1.25618 13.9697 1.43604 13.8701 1.60205C13.776 1.76253 13.6488 1.89258 13.4883 1.99219C13.3278 2.08626 13.1535 2.1333 12.9653 2.1333H1.05371Z" fill="black"/>
</svg>
