<svg width="15" height="15" viewBox="0 0 15 15" fill="none" xmlns="http://www.w3.org/2000/svg">
<path d="M0 7.02246C0 6.72917 0.105143 6.47738 0.31543 6.26709C0.525716 6.0568 0.777507 5.95166 1.0708 5.95166H5.95996V1.0708C5.95996 0.777507 6.06234 0.525716 6.26709 0.31543C6.47184 0.105143 6.72363 0 7.02246 0C7.31576 0 7.56755 0.105143 7.77783 0.31543C7.98812 0.525716 8.09326 0.777507 8.09326 1.0708V5.95166H12.9824C13.2702 5.95166 13.5192 6.0568 13.7295 6.26709C13.9398 6.47738 14.0449 6.72917 14.0449 7.02246C14.0449 7.32129 13.9398 7.57585 13.7295 7.78613C13.5192 7.99089 13.2702 8.09326 12.9824 8.09326H8.09326V12.9824C8.09326 13.2702 7.98812 13.5192 7.77783 13.7295C7.56755 13.9398 7.31576 14.0449 7.02246 14.0449C6.72363 14.0449 6.47184 13.9398 6.26709 13.7295C6.06234 13.5192 5.95996 13.2702 5.95996 12.9824V8.09326H1.0708C0.777507 8.09326 0.525716 7.99089 0.31543 7.78613C0.105143 7.57585 0 7.32129 0 7.02246Z" fill="black"/>
</svg>
