<svg width="22" height="22" viewBox="0 0 22 22" fill="none" xmlns="http://www.w3.org/2000/svg">
<path d="M17.4814 3.22171L3.22142 17.4817C2.86344 17.8397 2.86344 18.4201 3.22142 18.7781C3.5794 19.136 4.15981 19.136 4.51779 18.7781L18.7778 4.51808C19.1358 4.1601 19.1358 3.5797 18.7778 3.22172C18.4198 2.86373 17.8394 2.86373 17.4814 3.22171Z" fill="#003232"/>
<path d="M4.51859 3.22171L18.7786 17.4817C19.1366 17.8397 19.1366 18.4201 18.7786 18.7781C18.4206 19.136 17.8402 19.136 17.4822 18.7781L3.22223 4.51808C2.86425 4.1601 2.86425 3.5797 3.22223 3.22172C3.58021 2.86373 4.16061 2.86373 4.51859 3.22171Z" fill="#003232"/>
</svg>
