<svg width="24" height="24" viewBox="0 0 24 24" fill="none" xmlns="http://www.w3.org/2000/svg">
<path opacity="0.949" fill-rule="evenodd" clip-rule="evenodd" d="M8.08589 4.66413C9.5895 4.57665 10.8864 5.04541 11.9765 6.07038C13.7585 4.55378 15.696 4.32722 17.789 5.39069C19.4538 6.49403 20.196 8.04869 20.0156 10.0548C19.8904 11.0392 19.4997 11.8986 18.8437 12.6329C16.6796 14.797 14.5156 16.961 12.3515 19.1251C12.1015 19.2813 11.8515 19.2813 11.6015 19.1251C9.40622 16.9298 7.21088 14.7344 5.01558 12.5391C3.81848 11.0598 3.53723 9.41917 4.17183 7.61725C4.93406 5.90927 6.23874 4.92489 8.08589 4.66413ZM8.27339 5.88288C9.65353 5.86206 10.7785 6.38552 11.6484 7.45319C11.8672 7.54694 12.0859 7.54694 12.3046 7.45319C12.8093 6.85422 13.4187 6.40108 14.1328 6.09381C15.8587 5.61705 17.2571 6.09358 18.3281 7.5235C19.1534 8.92225 19.0909 10.2816 18.1406 11.6016C16.11 13.6869 14.0553 15.7494 11.9765 17.7891C9.93028 15.7663 7.89122 13.7351 5.85933 11.6954C4.9898 10.4988 4.84917 9.21756 5.43745 7.85163C6.06722 6.73633 7.01255 6.08008 8.27339 5.88288Z" fill="#20201A"/>
</svg>
