<svg width="22" height="22" viewBox="0 0 22 22" fill="none" xmlns="http://www.w3.org/2000/svg">
<path opacity="0.949" fill-rule="evenodd" clip-rule="evenodd" d="M7.41217 4.27557C8.79048 4.19539 9.97929 4.62508 10.9786 5.56463C12.612 4.17442 14.3881 3.96674 16.3067 4.94159C17.8327 5.95298 18.5131 7.37809 18.3477 9.21698C18.2329 10.1194 17.8748 10.9072 17.2735 11.5803C15.2898 13.564 13.3061 15.5477 11.3223 17.5314C11.0932 17.6746 10.864 17.6746 10.6348 17.5314C8.62247 15.5191 6.61007 13.5067 4.59772 11.4943C3.50038 10.1383 3.24256 8.63436 3.82428 6.9826C4.52299 5.41695 5.71894 4.51461 7.41217 4.27557ZM7.58404 5.39276C8.84917 5.37368 9.88042 5.85351 10.6778 6.83221C10.8783 6.91815 11.0788 6.91815 11.2794 6.83221C11.742 6.28316 12.3006 5.86778 12.9551 5.58612C14.5372 5.14908 15.8191 5.5859 16.8008 6.89666C17.5574 8.17885 17.5001 9.42495 16.629 10.6349C14.7676 12.5465 12.8841 14.4371 10.9786 16.3068C9.10286 14.4526 7.23372 12.5906 5.37115 10.7209C4.57408 9.62406 4.44518 8.44955 4.98444 7.19745C5.56172 6.17509 6.42827 5.57353 7.58404 5.39276Z" fill="#20201A"/>
</svg>
