<?xml version="1.0" encoding="utf-8"?><svg viewBox="0 0 17 16" xmlns="http://www.w3.org/2000/svg" xmlns:xlink="http://www.w3.org/1999/xlink"><style>:root>svg{display:none}:root>svg:target{display:block}</style><svg viewBox="0 0 16 16" id="cart" xmlns="http://www.w3.org/2000/svg"><g clip-path="url(#aclip0_3_2773)"><path d="M12 4a4 4 0 10-8 0H0v10a2 2 0 002 2h12a2 2 0 002-2V4h-4zM8 1.333A2.667 2.667 0 0110.667 4H5.333A2.667 2.667 0 018 1.333zM14.667 14a.667.667 0 01-.667.667H2A.667.667 0 011.333 14V5.333H4v1.334h1.333V5.333h5.334v1.334H12V5.333h2.667V14z"/></g><defs><clipPath id="aclip0_3_2773"><path d="M0 0h16v16H0z"/></clipPath></defs></svg><svg viewBox="0 0 17 15" id="heart" xmlns="http://www.w3.org/2000/svg"><path opacity=".949" fill-rule="evenodd" clip-rule="evenodd" d="M4.244.01c1.503-.087 2.8.382 3.89 1.407C9.916-.1 11.854-.327 13.947.737c1.665 1.103 2.407 2.658 2.227 4.664a4.666 4.666 0 01-1.172 2.578l-6.493 6.492a.659.659 0 01-.75 0L1.174 7.885C-.024 6.406-.305 4.765.33 2.963 1.092 1.255 2.397.271 4.244.01zm.187 1.22c1.38-.022 2.505.502 3.375 1.57a.8.8 0 00.657 0 4.886 4.886 0 011.828-1.36c1.726-.477 3.124 0 4.195 1.43.825 1.398.763 2.758-.188 4.078a383.348 383.348 0 01-6.164 6.187 1123.746 1123.746 0 01-6.117-6.093c-.87-1.197-1.01-2.478-.422-3.844.63-1.115 1.576-1.772 2.836-1.969z"/></svg><svg viewBox="0 0 16 16" id="search" xmlns="http://www.w3.org/2000/svg"><g clip-path="url(#cclip0_3_2795)"><path d="M15.805 14.862l-3.98-3.98a6.677 6.677 0 10-.942.943l3.979 3.98a.666.666 0 00.943-.943zM6.667 12a5.333 5.333 0 110-10.666 5.333 5.333 0 010 10.666z"/></g><defs><clipPath id="cclip0_3_2795"><path d="M0 0h16v16H0z"/></clipPath></defs></svg><svg viewBox="0 0 16 16" id="user" xmlns="http://www.w3.org/2000/svg"><g clip-path="url(#dclip0_3_2779)"><path d="M8 8a4 4 0 100-8 4 4 0 000 8zm0-6.667a2.667 2.667 0 110 5.334 2.667 2.667 0 010-5.334zM8 9.334a6.007 6.007 0 00-6 6 .667.667 0 101.333 0 4.666 4.666 0 119.334 0 .667.667 0 101.333 0 6.007 6.007 0 00-6-6z"/></g><defs><clipPath id="dclip0_3_2779"><path d="M0 0h16v16H0z"/></clipPath></defs></svg></svg>