<svg width="16" height="16" viewBox="0 0 16 16" fill="none" xmlns="http://www.w3.org/2000/svg">
<g clip-path="url(#clip0_3_2795)">
<path d="M15.8046 14.8619L11.8253 10.8825C12.9097 9.55625 13.4429 7.86392 13.3145 6.15556C13.1862 4.44721 12.4061 2.85354 11.1357 1.7042C9.86528 0.554862 8.2017 -0.0622172 6.48907 -0.019396C4.77644 0.0234252 3.14578 0.72287 1.93439 1.93426C0.722992 3.14566 0.0235473 4.77632 -0.0192739 6.48895C-0.0620951 8.20158 0.554984 9.86516 1.70432 11.1356C2.85366 12.406 4.44733 13.1861 6.15568 13.3144C7.86404 13.4428 9.55637 12.9096 10.8826 11.8252L14.862 15.8045C14.9877 15.926 15.1561 15.9932 15.3309 15.9916C15.5057 15.9901 15.6729 15.92 15.7965 15.7964C15.9201 15.6728 15.9902 15.5056 15.9918 15.3308C15.9933 15.156 15.9261 14.9876 15.8046 14.8619ZM6.66664 11.9999C5.61181 11.9999 4.58066 11.6871 3.7036 11.101C2.82654 10.515 2.14295 9.68204 1.73929 8.7075C1.33562 7.73296 1.23 6.6606 1.43579 5.62604C1.64158 4.59147 2.14953 3.64117 2.89541 2.89529C3.64129 2.14941 4.5916 1.64145 5.62616 1.43567C6.66073 1.22988 7.73308 1.3355 8.70762 1.73916C9.68216 2.14283 10.5151 2.82642 11.1011 3.70348C11.6872 4.58054 12 5.61169 12 6.66652C11.9984 8.08052 11.436 9.43615 10.4361 10.436C9.43628 11.4359 8.08064 11.9983 6.66664 11.9999Z" fill="#20201A"/>
</g>
<defs>
<clipPath id="clip0_3_2795">
<rect width="16" height="16" fill="white"/>
</clipPath>
</defs>
</svg>
